<?xml version="1.0" encoding="UTF-8" standalone="no"?>
<!DOCTYPE svg PUBLIC "-//W3C//DTD SVG 1.1//EN" "http://www.w3.org/Graphics/SVG/1.1/DTD/svg11.dtd">
<svg width="100%" height="100%" viewBox="0 0 2481 2481" version="1.1" xmlns="http://www.w3.org/2000/svg" xmlns:xlink="http://www.w3.org/1999/xlink" xml:space="preserve" xmlns:serif="http://www.serif.com/" style="fill-rule:evenodd;clip-rule:evenodd;stroke-linejoin:round;stroke-miterlimit:2;">
    <g transform="matrix(33.9562,0,0,33.9562,0.57204,701.393)">
        <g id="Page-1">
            <g id="_2-saydo" serif:id="2-saydo">
                <g id="Header">
                    <g id="Top">
                        <g id="Logo">
                            <path id="Pictogram" d="M15.523,0.35C6.95,0.35 0,7.3 0,15.874C0,24.448 6.95,31.397 15.523,31.397L22.484,31.397L27.77,39.982L33.109,31.397L38.276,23.091C38.616,22.531 38.904,22.06 39.136,21.678C39.367,21.296 39.624,20.938 39.902,20.603C40.182,20.268 40.494,20.012 40.835,19.835C41.177,19.657 41.592,19.569 42.085,19.569C42.848,19.569 43.487,19.818 43.998,20.316C44.511,20.815 44.768,21.391 44.768,22.046C44.768,22.579 44.638,23.111 44.378,23.644C44.118,24.176 43.675,24.914 43.047,25.856L39.502,31.397L57.486,31.397C66.059,31.397 73.01,24.448 73.01,15.874C73.01,7.3 66.059,0.35 57.486,0.35L15.523,0.35Z"/>
                        </g>
                    </g>
                </g>
            </g>
        </g>
    </g>
</svg>
