<?xml version="1.0" encoding="UTF-8" standalone="no"?>
<!DOCTYPE svg PUBLIC "-//W3C//DTD SVG 1.1//EN" "http://www.w3.org/Graphics/SVG/1.1/DTD/svg11.dtd">
<svg width="100%" height="100%" viewBox="0 0 2689 510" version="1.1" xmlns="http://www.w3.org/2000/svg" xmlns:xlink="http://www.w3.org/1999/xlink" xml:space="preserve" xmlns:serif="http://www.serif.com/" style="fill-rule:evenodd;clip-rule:evenodd;stroke-linejoin:round;stroke-miterlimit:2;">
    <g transform="matrix(12.6093,0,0,12.6093,985.083,4.41567)">
        <g id="Page-1">
            <g id="_2-saydo" serif:id="2-saydo">
                <g id="Header">
                    <g id="Top">
                        <g id="Logo">
                            <g id="Name">
                                <path id="Fill" d="M24.252,21.6C24.252,23.416 23.785,25.048 22.849,26.494C21.914,27.942 20.546,29.075 18.743,29.895C16.942,30.713 14.804,31.123 12.333,31.123C9.37,31.123 6.927,30.563 5.001,29.444C3.636,28.638 2.526,27.562 1.673,26.219C0.82,24.873 0.394,23.566 0.394,22.296C0.394,21.558 0.65,20.927 1.161,20.402C1.673,19.877 2.325,19.614 3.118,19.614C3.759,19.614 4.301,19.817 4.746,20.227C5.189,20.637 5.568,21.245 5.882,22.05C6.264,23.006 6.677,23.805 7.121,24.446C7.565,25.088 8.19,25.617 8.995,26.034C9.8,26.449 10.858,26.657 12.169,26.657C13.971,26.657 15.436,26.239 16.562,25.399C17.689,24.559 18.252,23.511 18.252,22.255C18.252,21.259 17.948,20.45 17.34,19.828C16.732,19.207 15.949,18.732 14.986,18.404C14.023,18.077 12.736,17.729 11.125,17.359C8.967,16.856 7.162,16.264 5.708,15.589C4.254,14.913 3.1,13.992 2.246,12.823C1.393,11.657 0.967,10.206 0.967,8.472C0.967,6.82 1.417,5.353 2.318,4.069C3.22,2.785 4.523,1.799 6.231,1.109C7.937,0.421 9.943,0.076 12.251,0.076C14.094,0.076 15.688,0.304 17.034,0.761C18.378,1.219 19.495,1.827 20.381,2.584C21.269,3.342 21.918,4.137 22.328,4.97C22.737,5.803 22.942,6.615 22.942,7.408C22.942,8.131 22.686,8.783 22.174,9.362C21.661,9.944 21.023,10.234 20.258,10.234C19.563,10.234 19.033,10.059 18.672,9.711C18.31,9.362 17.917,8.793 17.495,8.001C16.948,6.868 16.292,5.983 15.529,5.348C14.764,4.715 13.534,4.397 11.841,4.397C10.271,4.397 9.005,4.742 8.042,5.43C7.081,6.12 6.599,6.95 6.599,7.919C6.599,8.519 6.762,9.039 7.09,9.476C7.417,9.912 7.868,10.289 8.442,10.602C9.015,10.917 9.595,11.162 10.183,11.339C10.77,11.517 11.74,11.777 13.091,12.117C14.784,12.514 16.317,12.95 17.689,13.428C19.061,13.906 20.228,14.486 21.191,15.169C22.154,15.853 22.904,16.716 23.444,17.759C23.982,18.804 24.252,20.084 24.252,21.6" style="fill:white;"/>
                                <path id="Fill1" serif:id="Fill" d="M35.137,18.876L44.108,18.876L39.581,6.485L35.137,18.876ZM47.179,27.211L45.746,23.443L33.54,23.443L32.106,27.293C31.546,28.796 31.069,29.809 30.673,30.335C30.276,30.86 29.628,31.123 28.728,31.123C27.963,31.123 27.287,30.843 26.7,30.283C26.112,29.724 25.818,29.089 25.818,28.377C25.818,27.969 25.887,27.546 26.024,27.109C26.16,26.671 26.385,26.064 26.7,25.286L34.38,5.79C34.598,5.23 34.86,4.557 35.168,3.772C35.475,2.987 35.803,2.336 36.151,1.816C36.498,1.298 36.956,0.878 37.523,0.556C38.089,0.236 38.789,0.075 39.622,0.075C40.469,0.075 41.175,0.236 41.742,0.556C42.308,0.878 42.765,1.291 43.113,1.796C43.462,2.301 43.755,2.844 43.995,3.424C44.233,4.004 44.538,4.779 44.906,5.748L52.75,25.123C53.363,26.596 53.671,27.669 53.671,28.337C53.671,29.034 53.381,29.672 52.801,30.252C52.22,30.833 51.522,31.123 50.702,31.123C50.224,31.123 49.814,31.037 49.474,30.867C49.132,30.695 48.844,30.464 48.612,30.17C48.38,29.877 48.131,29.427 47.864,28.819C47.599,28.211 47.371,27.676 47.179,27.211Z" style="fill:white;"/>
                                <path id="Fill2" serif:id="Fill" d="M59.303,27.416L59.303,17.893L51.971,6.526C51.33,5.502 50.875,4.704 50.61,4.13C50.342,3.557 50.21,3.059 50.21,2.636C50.21,1.939 50.48,1.338 51.018,0.833C51.558,0.328 52.223,0.075 53.016,0.075C53.848,0.075 54.48,0.311 54.911,0.781C55.339,1.253 55.984,2.191 56.845,3.599L62.456,12.712L68.13,3.599C68.471,3.039 68.758,2.567 68.99,2.186C69.222,1.803 69.478,1.444 69.758,1.109C70.037,0.775 70.348,0.519 70.69,0.341C71.031,0.165 71.448,0.075 71.939,0.075C72.704,0.075 73.342,0.324 73.854,0.823C74.366,1.321 74.622,1.898 74.622,2.554C74.622,3.086 74.492,3.619 74.232,4.15C73.974,4.684 73.529,5.42 72.901,6.363L65.385,17.893L65.385,27.416C65.385,28.659 65.099,29.587 64.526,30.202C63.952,30.815 63.221,31.123 62.334,31.123C61.433,31.123 60.703,30.818 60.143,30.212C59.583,29.604 59.303,28.672 59.303,27.416" style="fill:white;"/>
                                <path id="Fill3" serif:id="Fill" d="M83.5,5.4L83.5,25.778L88.108,25.778C89.119,25.778 89.91,25.751 90.482,25.696C91.057,25.641 91.649,25.505 92.264,25.286C92.878,25.068 93.411,24.761 93.863,24.365C95.898,22.645 96.912,19.682 96.912,15.476C96.912,12.514 96.466,10.294 95.573,8.821C94.677,7.346 93.574,6.407 92.264,6.003C90.953,5.602 89.368,5.4 87.514,5.4L83.5,5.4ZM81.143,0.588L89.069,0.588C91.131,0.588 92.901,0.779 94.375,1.161C95.85,1.543 97.185,2.259 98.389,3.312C101.515,5.987 103.077,10.056 103.077,15.518C103.077,17.319 102.92,18.964 102.606,20.452C102.293,21.94 101.81,23.283 101.151,24.478C100.498,25.671 99.658,26.741 98.634,27.682C97.829,28.406 96.946,28.987 95.993,29.424C95.035,29.86 94.009,30.167 92.91,30.345C91.81,30.522 90.572,30.61 89.194,30.61L81.267,30.61C80.161,30.61 79.327,30.444 78.77,30.11C78.209,29.775 77.842,29.304 77.673,28.697C77.501,28.089 77.416,27.299 77.416,26.33L77.416,4.315C77.416,3.004 77.709,2.056 78.298,1.468C78.885,0.881 79.832,0.588 81.143,0.588Z" style="fill:white;"/>
                                <path id="Fill4" serif:id="Fill" d="M128.831,15.517C128.831,13.319 128.476,11.414 127.767,9.803C127.057,8.193 126.042,6.974 124.725,6.147C123.407,5.322 121.894,4.909 120.19,4.909C118.973,4.909 117.851,5.137 116.82,5.595C115.789,6.052 114.901,6.717 114.158,7.592C113.412,8.465 112.826,9.581 112.396,10.941C111.966,12.299 111.751,13.824 111.751,15.517C111.751,17.225 111.966,18.766 112.396,20.146C112.826,21.524 113.433,22.669 114.219,23.575C115.004,24.485 115.904,25.163 116.922,25.613C117.94,26.065 119.057,26.289 120.27,26.289C121.826,26.289 123.258,25.901 124.561,25.123C125.865,24.345 126.903,23.142 127.673,21.517C128.445,19.893 128.831,17.893 128.831,15.517M120.19,0.075C123.301,0.075 125.974,0.708 128.206,1.97C130.439,3.233 132.129,5.029 133.275,7.355C134.422,9.683 134.995,12.419 134.995,15.558C134.995,17.88 134.682,19.989 134.053,21.887C133.426,23.785 132.482,25.43 131.227,26.823C129.971,28.214 128.428,29.279 126.599,30.017C124.769,30.754 122.674,31.124 120.312,31.124C117.964,31.124 115.861,30.744 114.005,29.987C112.146,29.229 110.597,28.161 109.355,26.781C108.113,25.403 107.174,23.743 106.539,21.804C105.904,19.866 105.588,17.77 105.588,15.517C105.588,13.209 105.918,11.094 106.579,9.168C107.242,7.244 108.201,5.605 109.457,4.254C110.713,2.901 112.243,1.866 114.045,1.151C115.847,0.433 117.895,0.075 120.19,0.075" style="fill:white;"/>
                            </g>
                        </g>
                    </g>
                </g>
            </g>
        </g>
    </g>
    <g transform="matrix(15.7615,0,0,15.7615,1.26868,0.598911)">
        <path d="M12.418,0.294C5.559,0.294 0,5.853 0,12.712C0,19.572 5.559,25.13 12.418,25.13L17.988,25.13L22.215,32.001L26.488,25.13L30.621,18.486C30.895,18.041 31.121,17.662 31.309,17.357C31.492,17.052 31.699,16.763 31.922,16.498C32.145,16.228 32.395,16.025 32.668,15.88C32.941,15.74 33.273,15.67 33.668,15.67C34.277,15.67 34.789,15.869 35.199,16.267C35.609,16.666 35.812,17.126 35.812,17.65C35.812,18.076 35.711,18.501 35.504,18.931C35.293,19.357 34.941,19.947 34.438,20.701L31.602,25.13L45.988,25.13C52.848,25.13 58.406,19.572 58.406,12.712C58.406,5.853 52.848,0.294 45.988,0.294L12.418,0.294Z" style="fill:rgb(63,169,245);"/>
    </g>
</svg>
